<?xml version="1.0" encoding="UTF-8"?>
<svg id="Layer_1" data-name="Layer 1" xmlns="http://www.w3.org/2000/svg" viewBox="0 0 1927.06 677.8">
  <defs>
    <style>
      .cls-1 {
        fill: none;
        stroke: #000;
        stroke-miterlimit: 10;
        stroke-width: 60px;
      }
    </style>
  </defs>
  <g>
    <path d="M0,460.42V61.72c0-11.4,6.3-17.7,17.7-17.7h258.9c26.7,0,43.5,16.5,43.5,43.2v113.1c0,21.3-33,36.3-33,64.2,0,29.7,33,46.5,33,69.6v100.8c0,26.7-16.8,43.2-43.5,43.2H17.7c-11.4,0-17.7-6.3-17.7-17.7ZM227.1,214.12v-52.8c0-14.4-10.5-24.9-24.9-24.9h-108.9v102.9h108.9c14.4,0,24.9-10.8,24.9-25.2ZM227.1,360.82v-48.3c0-14.1-10.5-24.6-24.9-24.6h-108.9v97.8h108.9c14.4,0,24.9-10.5,24.9-24.9Z"/>
    <path d="M630.2,478.12h-210.62c-28.44,0-43.75-15.31-43.75-43.75V171.88c0-28.44,15.31-43.75,43.75-43.75h210.62c28.44,0,43.75,15.31,43.75,43.75v262.5c0,28.44-15.31,43.75-43.75,43.75ZM494.58,396.25h58.44c13.75,0,25-11.25,25-25v-134.38c0-13.75-11.25-25-25-25h-58.12c-12.81,0-22.81,11.88-22.81,25v134.38c0,12.81,10,25,22.5,25Z"/>
    <path d="M745.83,444.69V18.44c0-11.88,6.56-18.44,18.44-18.44h59.38c11.88,0,18.44,6.56,18.44,18.44v368.44h40.31c11.56,0,17.81,6.56,17.81,18.12v55.31c0,11.25-6.25,17.81-17.81,17.81h-97.81c-20.94,0-38.75-9.69-38.75-33.44Z"/>
    <path d="M1202.38,478.12h-210.62c-28.44,0-43.75-15.31-43.75-43.75V171.88c0-28.44,15.31-43.75,43.75-43.75h210.62c28.44,0,43.75,15.31,43.75,43.75v262.5c0,28.44-15.31,43.75-43.75,43.75ZM1066.76,396.25h58.44c13.75,0,25-11.25,25-25v-134.38c0-13.75-11.25-25-25-25h-58.12c-12.81,0-22.81,11.88-22.81,25v134.38c0,12.81,10,25,22.5,25Z"/>
    <path d="M1317.17,446.02V188.02h-12.6c-11.1,0-17.4-6.3-17.4-17.4v-11.4c0-10.8,6.3-17.1,17.4-17.1h12.6V36.82c0-11.4,6.3-17.7,17.4-17.7h57c11.4,0,17.7,6.3,17.7,17.7v105.3h29.1c11.1,0,17.1,6.3,17.1,17.1v11.4c0,11.1-6,17.4-17.1,17.4h-29.1v205.8h40.8c11.1,0,17.1,6,17.1,17.1v50.1c0,10.8-6,17.1-17.1,17.1h-95.7c-20.4,0-37.2-9.3-37.2-32.1Z"/>
    <path d="M1493.26,456.22V164.02c0-14.1,7.8-21.9,21.9-21.9h48.3c14.1,0,21.9,7.8,21.9,21.9v292.2c0,14.1-7.8,21.9-21.9,21.9h-48.3c-14.1,0-21.9-7.8-21.9-21.9ZM1495.36,55.12c0-29.7,10.5-46.2,44.4-46.2s44.4,16.5,44.4,46.2-10.2,46.2-44.4,46.2-44.4-17.1-44.4-46.2Z"/>
    <path d="M1816.66,225.82h-84.9v234.6c0,11.4-6.3,17.7-17.7,17.7h-57c-11.4,0-17.7-6.3-17.7-17.7V162.52c0-13.5,7.8-20.4,23.7-20.4h32.7c40.2,0,30,25.5,58.8,25.5,30.9,0,23.4-25.5,107.4-25.5,55.8,0,65.1,25.2,65.1,54.9v263.4c0,11.4-6.3,17.7-17.7,17.7h-57c-11.4,0-17.7-6.3-17.7-17.7v-212.4c0-15-6.6-22.2-18-22.2Z"/>
  </g>
  <path class="cls-1" d="M419.89,516.88c47.2,34.42,194.04,132.21,405.45,130.91,204.43-1.26,346.55-94.43,394.55-129.09"/>
</svg>